<?xml version="1.0" encoding="utf-8"?>
<!-- Generator: Adobe Illustrator 25.1.0, SVG Export Plug-In . SVG Version: 6.00 Build 0)  -->
<svg version="1.1" id="ab" xmlns="http://www.w3.org/2000/svg" xmlns:xlink="http://www.w3.org/1999/xlink" x="0px" y="0px"
	 viewBox="0 0 731.7 409.2" style="enable-background:new 0 0 731.7 409.2;" xml:space="preserve">
<style type="text/css">
	.st0{fill:#0FFF95;}
</style>
<g id="calque">
	<path id="b" class="st0" d="M252.3,197.1l19.8-22.8l202.4,176c0,0,93.9,65.8,180.9-7.9c0,0,47.4-35.5,46.1-122.5
		S594.7,97.5,594.7,97.5s-83.6-21.7-141.6,44.8c-11.7,12.5-21.1,27-27.7,42.8L424.1,0h31.6l-1.3,99.4c0,0,74.4-61.9,163.3-25
		s106.7,105.3,106.7,105.3s39.5,124.6-65.2,197.6s-204.8-4-204.8-4L252.3,197.1z"/>
	<path id="a" class="st0" d="M476.9,273.9l-210-185c0,0-133-85.6-240.3,52.7c0,0-93.5,152.8,71.1,249.5c0,0,115.9,67.8,218.6-59.3
		l64.5,56l19.1-23.7l-93.5-83.6c0,0-15.8,81-120.5,97.5C81.2,394.5,35,275.2,35,275.2S0.1,153.4,124.6,102.1c0,0,67.2-32.3,135,22.4
		l199,172.3L476.9,273.9z"/>
</g>
</svg>
